<svg width="40" height="40" viewBox="0 0 40 40" fill="none" xmlns="http://www.w3.org/2000/svg">
<path d="M32.5827 19.5139C32.6478 19.1253 32.6875 18.7329 32.7013 18.3391C32.7077 16.3223 32.044 14.3606 30.8143 12.762C29.5846 11.1635 27.8586 10.0189 25.9076 9.50791C23.9566 8.99696 21.8911 9.14869 20.0358 9.93926C18.1804 10.7298 16.6402 12.1144 15.6573 13.8755C15.0702 13.6511 14.4499 13.5258 13.8217 13.5047C13.0614 13.5047 12.3085 13.6544 11.6061 13.9453C10.9037 14.2363 10.2654 14.6627 9.72779 15.2004C9.19017 15.738 8.76371 16.3762 8.47277 17.0787C8.18183 17.7811 8.0321 18.534 8.03213 19.2943C8.03213 19.3269 8.05006 19.3539 8.05073 19.3862C6.57333 19.4942 5.19579 20.1723 4.20908 21.2772C3.22238 22.3821 2.70378 23.8273 2.76284 25.3074C2.8219 26.7876 3.454 28.1868 4.52559 29.2096C5.59719 30.2324 7.02439 30.7985 8.50569 30.7885H31.4942C33.0184 30.7885 34.4802 30.183 35.558 29.1052C36.6358 28.0274 37.2413 26.5657 37.2413 25.0414C37.2299 23.7218 36.7583 22.4475 35.9078 21.4384C35.0573 20.4293 33.8813 19.7486 32.5827 19.5139Z" fill="#3C5166"/>
</svg>
