<svg width="250" height="250" viewBox="0 0 250 250" fill="none" xmlns="http://www.w3.org/2000/svg">
<g clip-path="url(#clip0)">
<path d="M189.032 68.1759L176.827 92.0069L191.27 20.0999C192.235 15.6412 191.327 10.9804 188.757 7.20853C186.187 3.4367 182.183 0.887805 177.678 0.153281C168.725 -1.06584 160.359 4.86377 158.544 13.7162L150.867 47.4738L142.732 85.1596L141.768 20.4834C141.633 11.2761 134.059 3.9232 124.851 4.05866C115.644 4.19412 108.291 11.7683 108.427 20.9756V93.911L102.175 80.7544C98.691 73.3004 90.2774 69.5171 82.3903 71.86L59.9711 78.4535C57.2848 79.2815 54.9496 80.9814 53.3375 83.2842L42.4341 98.8046C39.5971 102.752 38.7462 107.791 40.1294 112.45C40.1504 112.513 40.1866 112.566 40.2038 112.629C33.9613 113.386 29.2604 118.673 29.2394 124.961V157.24C29.2394 160.598 30.592 163.815 32.9902 166.165L73.5092 204.45C74.8428 205.763 75.875 207.35 76.5351 209.102C77.2658 210.908 78.1758 212.639 79.2519 214.264V237.492C79.2519 244.397 84.8495 249.994 91.7559 249.994H158.439C165.346 249.994 170.943 244.397 170.943 237.492V214.669C174.608 209.813 177.266 204.275 178.758 198.377C181.124 188.884 182.768 179.225 183.68 169.481C184.243 164.752 184.817 159.959 185.563 155.115C186.918 146.82 189.602 138.799 193.515 131.36L219.288 82.151C221.29 78.0376 221.511 73.2852 219.903 69.0039C218.292 64.7246 214.994 61.2943 210.779 59.52C202.381 56.1927 192.846 59.9874 189.032 68.1759ZM86.5036 138.095L77.676 151.219C76.4893 150.78 75.3675 150.183 74.343 149.439L68.4153 144.967C67.3659 144.179 66.7478 142.945 66.7478 141.632V137.465C66.7573 131.996 64.9563 126.678 61.6271 122.34C63.4224 121.554 65.0574 120.444 66.4521 119.064L76.0753 109.103C76.7965 108.466 77.7924 108.237 78.7177 108.497C79.6449 108.756 80.3756 109.468 80.6599 110.387L86.8757 135.165C87.1408 136.151 87.0092 137.204 86.5074 138.095H86.5036ZM207.523 67.1972C209.648 68.0863 211.31 69.8205 212.107 71.9802C212.901 74.0636 212.807 76.3797 211.846 78.3906L186.122 127.501C181.789 135.746 178.819 144.641 177.327 153.837C176.566 158.784 175.978 163.672 175.402 168.491C174.532 177.82 172.966 187.072 170.718 196.168C168.146 205.513 162.486 216.653 150.104 216.653C147.803 216.653 145.937 218.519 145.937 220.821C145.937 223.122 147.803 224.988 150.104 224.988C154.477 225.007 158.783 223.903 162.608 221.783V237.492C162.608 239.793 160.742 241.659 158.439 241.659H91.7559C89.4532 241.659 87.5873 239.793 87.5873 237.492V222.037C91.445 224.046 95.7434 225.059 100.091 224.988C102.392 224.988 104.258 223.122 104.258 220.821C104.258 218.519 102.392 216.653 100.091 216.653C93.0018 217.137 86.4845 212.759 84.2524 206.013C83.1496 203.134 81.4268 200.531 79.2099 198.389L38.7825 160.188C38.0022 159.406 37.5672 158.345 37.5748 157.24V124.961C37.5576 122.7 39.3605 120.844 41.6214 120.795C46.0628 120.762 50.3345 122.504 53.4882 125.635C56.64 128.764 58.4124 133.022 58.4124 137.465V141.632C58.4219 145.566 60.2725 149.267 63.4148 151.635L69.3577 156.096C72.0707 158.07 75.19 159.415 78.4887 160.033C78.6108 160.062 78.7234 160.083 78.8436 160.104C83.8803 160.993 89.0697 160.207 93.618 157.866C94.9516 157.2 95.8273 155.874 95.917 154.388C96.0066 152.902 95.2969 151.479 94.0549 150.658C92.811 149.836 91.2256 149.741 89.892 150.406C89.1746 150.752 88.4325 151.044 87.6712 151.282L93.5054 142.624C95.2607 139.785 95.7892 136.355 94.9688 133.117L88.7663 108.386C87.5739 103.433 83.1382 99.9455 78.0442 99.9551C75.0202 99.9264 72.1241 101.157 70.0446 103.351L60.4977 113.22C57.7465 115.914 53.3947 116.061 50.4681 113.56C47.5433 111.059 47.011 106.737 49.2432 103.603L60.1638 88.0558C60.7075 87.2888 61.4897 86.7241 62.3883 86.4474L84.7484 79.8711C88.7015 78.6939 92.9197 80.5846 94.6731 84.3183L107.255 110.891C108.267 112.988 110.588 114.111 112.861 113.6C115.131 113.087 116.749 111.076 116.762 108.748V20.9012C116.684 16.2975 120.355 12.5028 124.958 12.4265C129.562 12.3483 133.357 16.0171 133.433 20.6207L134.809 112.73C134.824 115.384 136.837 117.603 139.479 117.87C142.121 118.139 144.541 116.374 145.09 113.776L159.002 49.3034L166.683 15.5459C167.505 10.9975 171.724 7.87246 176.316 8.41047C178.582 8.76915 180.599 10.0512 181.885 11.9515C183.173 13.8517 183.615 16.2002 183.108 18.4382L163.907 113.997C163.404 116.439 164.773 118.879 167.122 119.719C169.47 120.558 172.077 119.539 173.235 117.33L196.488 71.902C198.382 67.7028 203.18 65.6576 207.523 67.1972Z" fill="white"/>
<path d="M117.353 137.513C115.878 137.302 114.403 137.893 113.484 139.063C112.564 140.234 112.337 141.808 112.892 143.189C113.446 144.572 114.695 145.553 116.17 145.765C123.672 146.841 144.509 152.267 150.54 164.342C151.57 166.4 154.073 167.238 156.134 166.207C158.194 165.179 159.03 162.674 158.002 160.616C148.794 142.201 118.627 137.697 117.353 137.513Z" fill="white"/>
<path d="M114.144 154.443C112.755 153.853 111.154 154.059 109.96 154.985C108.767 155.908 108.166 157.406 108.391 158.899C108.617 160.391 109.63 161.647 111.043 162.179C111.227 162.253 129.263 169.772 129.263 195.82C129.263 198.123 131.129 199.989 133.432 199.989C135.733 199.989 137.599 198.123 137.599 195.82C137.599 164.192 115.094 154.826 114.144 154.443Z" fill="white"/>
</g>
<defs>
<clipPath id="clip0">
<rect width="250" height="250" fill="white"/>
</clipPath>
</defs>
</svg>
