<svg width="60" height="60" viewBox="0 0 60 60" fill="none" xmlns="http://www.w3.org/2000/svg">
<path d="M59.82 17.6333C59.7706 15.1442 59.2995 12.6816 58.4267 10.35C57.6724 8.34807 56.4905 6.5348 54.9633 5.03667C53.4652 3.50951 51.6519 2.32759 49.65 1.57333C47.3195 0.700872 44.858 0.229755 42.37 0.18C39.1667 0.0333334 38.1467 0 30 0C21.8533 0 20.8333 0.0333334 17.6333 0.18C15.1442 0.229379 12.6816 0.700502 10.35 1.57333C8.34688 2.32716 6.53243 3.50911 5.03333 5.03667C3.50618 6.5348 2.32425 8.34807 1.57 10.35C0.697539 12.6805 0.226421 15.142 0.176667 17.63C0.0333332 20.8333 0 21.8533 0 30C0 38.1467 0.0333334 39.1667 0.18 42.3667C0.229379 44.8558 0.700502 47.3184 1.57333 49.65C2.32759 51.6519 3.50951 53.4652 5.03667 54.9633C6.53473 56.4906 8.34802 57.6725 10.35 58.4267C12.6805 59.2991 15.142 59.7702 17.63 59.82C20.8333 59.9667 21.8533 60 30 60C38.1467 60 39.1667 59.9667 42.3667 59.82C44.8558 59.7706 47.3184 59.2995 49.65 58.4267C51.6437 57.6559 53.4542 56.4771 54.9657 54.9657C56.4771 53.4542 57.6559 51.6437 58.4267 49.65C59.2991 47.3195 59.7702 44.858 59.82 42.37C59.9667 39.1667 60 38.1467 60 30C60 21.8533 59.9667 20.8333 59.82 17.6333ZM54.42 42.1233C54.397 44.0244 54.0475 45.9073 53.3867 47.69C52.888 48.9844 52.1238 50.1601 51.1432 51.1412C50.1627 52.1224 48.9875 52.8873 47.6933 53.3867C45.9096 54.0478 44.0255 54.3973 42.1233 54.42C38.9567 54.5633 38.01 54.5933 30 54.5933C21.99 54.5933 21.04 54.5633 17.8767 54.42C15.9756 54.3969 14.0927 54.0474 12.31 53.3867C11.0056 52.9065 9.82553 52.1399 8.85667 51.1433C7.86047 50.1754 7.0939 48.9965 6.61333 47.6933C5.95215 45.9096 5.60262 44.0255 5.58 42.1233C5.43667 38.9567 5.40667 38.01 5.40667 30C5.40667 21.99 5.43667 21.04 5.58 17.8767C5.60307 15.9756 5.95259 14.0927 6.61333 12.31C7.09346 11.0056 7.86005 9.82553 8.85667 8.85667C9.82457 7.86047 11.0035 7.0939 12.3067 6.61333C14.0904 5.95222 15.9745 5.60268 17.8767 5.58C21.0433 5.43667 21.99 5.40667 30 5.40667C38.01 5.40667 38.96 5.43667 42.1233 5.58C44.0244 5.60307 45.9073 5.95259 47.69 6.61333C48.9944 7.09346 50.1745 7.86005 51.1433 8.85667C52.1395 9.82457 52.9061 11.0035 53.3867 12.3067C54.0478 14.0904 54.3973 15.9745 54.42 17.8767C54.5633 21.0433 54.5933 21.99 54.5933 30C54.5933 38.01 54.5633 38.96 54.42 42.1233ZM30 14.5933C26.9528 14.5933 23.9741 15.4969 21.4405 17.1898C18.9069 18.8827 16.9322 21.2889 15.7661 24.1041C14.6 26.9193 14.2949 30.0171 14.8894 33.0057C15.4838 35.9943 16.9512 38.7395 19.1058 40.8942C21.2605 43.0488 24.0057 44.5162 26.9943 45.1106C29.9829 45.7051 33.0807 45.4 35.8959 44.2339C38.7111 43.0678 41.1173 41.0931 42.8102 38.5595C44.5031 36.0259 45.4067 33.0471 45.4067 30C45.4067 25.9139 43.7835 21.9952 40.8942 19.1058C38.0048 16.2165 34.0861 14.5933 30 14.5933ZM30 40C28.0222 40 26.0888 39.4135 24.4443 38.3147C22.7998 37.2159 21.5181 35.6541 20.7612 33.8268C20.0043 31.9996 19.8063 29.9889 20.1921 28.0491C20.578 26.1093 21.5304 24.3275 22.9289 22.9289C24.3275 21.5304 26.1093 20.578 28.0491 20.1921C29.9889 19.8063 31.9996 20.0043 33.8268 20.7612C35.6541 21.5181 37.2159 22.7998 38.3147 24.4443C39.4135 26.0888 40 28.0222 40 30C40 32.6522 38.9464 35.1957 37.0711 37.0711C35.1957 38.9464 32.6522 40 30 40ZM49.6133 13.9867C49.6133 14.6987 49.4022 15.3947 49.0066 15.9867C48.611 16.5787 48.0488 17.0402 47.391 17.3126C46.7332 17.5851 46.0093 17.6564 45.311 17.5175C44.6127 17.3786 43.9712 17.0357 43.4677 16.5323C42.9643 16.0288 42.6214 15.3873 42.4825 14.689C42.3436 13.9907 42.4149 13.2668 42.6874 12.609C42.9598 11.9512 43.4213 11.3889 44.0133 10.9934C44.6053 10.5978 45.3013 10.3867 46.0133 10.3867C46.9681 10.3867 47.8838 10.766 48.5589 11.4411C49.234 12.1162 49.6133 13.0319 49.6133 13.9867Z" fill="white"/>
</svg>
