<svg width="318" height="157" viewBox="0 0 318 157" fill="none" xmlns="http://www.w3.org/2000/svg">
<path d="M97.88 75.24C98.92 75.24 99.72 75.72 100.28 76.68C100.92 77.64 101.24 78.96 101.24 80.64C101.24 83.76 100.48 86.24 98.96 88.08C94.48 93.44 90.12 97.2 85.88 99.36C81.72 101.52 76.68 102.6 70.76 102.6C66.6 102.6 62.76 102.08 59.24 101.04C55.72 100 51.44 98.44 46.4 96.36C41.84 94.36 37.44 92.72 33.2 91.44C29.12 98.88 23 102.6 14.84 102.6C10.36 102.6 6.8 101.6 4.16 99.6C1.44 97.52 0.0799999 94.88 0.0799999 91.68C0.0799999 87.76 1.96 84.52 5.72 81.96C9.48 79.32 14.48 78 20.72 78H22.28L24.44 43.08C24.92 35.08 26.36 28.48 28.76 23.28C31.16 18.08 34.48 13.64 38.72 9.96C42.4 6.76 46.6 4.36 51.32 2.76C56.04 1.08 61.04 0.239994 66.32 0.239994C74.96 0.239994 81.6 2.47999 86.24 6.95999C90.88 11.44 93.2 17.28 93.2 24.48C93.2 29.36 92.32 33.32 90.56 36.36C88.8 39.32 86.36 40.8 83.24 40.8C81 40.8 79.24 40.28 77.96 39.24C76.68 38.12 76.04 36.56 76.04 34.56C76.04 33.84 76.2 32.52 76.52 30.6C77 28.36 77.24 26.36 77.24 24.6C77.24 21.24 76.24 18.6 74.24 16.68C72.32 14.68 69.36 13.68 65.36 13.68C58.32 13.68 52.88 16 49.04 20.64C45.2 25.2 42.76 32.4 41.72 42.24L38.96 69.48C38.56 73.32 38.04 76.64 37.4 79.44C42.52 80.32 48.92 81.72 56.6 83.64C61.08 84.76 64.52 85.56 66.92 86.04C69.32 86.52 71.44 86.76 73.28 86.76C77.92 86.76 81.88 86 85.16 84.48C88.52 82.88 91.68 80.36 94.64 76.92C95.6 75.8 96.68 75.24 97.88 75.24ZM162.312 65.16C163.352 65.16 164.152 65.68 164.712 66.72C165.272 67.76 165.552 69.08 165.552 70.68C165.552 74.52 164.392 76.8 162.072 77.52C157.272 79.2 151.992 80.16 146.232 80.4C144.712 87.12 141.712 92.52 137.232 96.6C132.752 100.6 127.672 102.6 121.992 102.6C117.192 102.6 113.072 101.44 109.632 99.12C106.272 96.8 103.712 93.72 101.952 89.88C100.192 86.04 99.3116 81.88 99.3116 77.4C99.3116 71.32 100.472 65.92 102.792 61.2C105.112 56.4 108.312 52.68 112.392 50.04C116.472 47.32 120.992 45.96 125.952 45.96C132.032 45.96 136.912 48.08 140.592 52.32C144.352 56.48 146.552 61.64 147.192 67.8C150.952 67.56 155.432 66.76 160.632 65.4C161.272 65.24 161.832 65.16 162.312 65.16ZM122.952 89.88C125.512 89.88 127.712 88.84 129.552 86.76C131.472 84.68 132.752 81.68 133.392 77.76C130.912 76.08 128.992 73.88 127.632 71.16C126.352 68.44 125.712 65.56 125.712 62.52C125.712 61.24 125.832 59.96 126.072 58.68H125.472C122.272 58.68 119.592 60.24 117.432 63.36C115.352 66.4 114.312 70.72 114.312 76.32C114.312 80.72 115.152 84.08 116.832 86.4C118.592 88.72 120.632 89.88 122.952 89.88ZM219.332 75.24C220.372 75.24 221.172 75.72 221.732 76.68C222.372 77.64 222.692 78.96 222.692 80.64C222.692 83.84 221.932 86.32 220.412 88.08C216.972 92.32 213.252 95.8 209.252 98.52C205.332 101.24 200.852 102.6 195.812 102.6C191.572 102.6 188.132 101.08 185.492 98.04C180.932 101 176.172 102.52 171.212 102.6C170.172 118.04 167.812 130.92 164.132 141.24C160.452 151.64 155.052 156.84 147.932 156.84C143.612 156.84 140.412 155.28 138.332 152.16C136.252 149.04 135.212 144.72 135.212 139.2C135.212 131.36 137.012 122.2 140.612 111.72C144.212 101.32 149.772 89.84 157.292 77.28C157.292 65.6 157.212 57.48 157.052 52.92C156.972 50.6 157.892 48.76 159.812 47.4C161.732 46.04 164.132 45.36 167.012 45.36C168.692 45.36 169.892 45.72 170.612 46.44C171.412 47.08 171.852 48.4 171.932 50.4C171.932 52.4 171.972 53.88 172.052 54.84C174.612 51.64 177.132 49.36 179.612 48C182.092 46.56 184.732 45.84 187.532 45.84C192.012 45.84 195.652 47.64 198.452 51.24C201.332 54.84 202.772 59.56 202.772 65.4C202.772 69.64 202.092 73.76 200.732 77.76C199.372 81.76 197.492 85.4 195.092 88.68C196.772 89.16 198.172 89.4 199.292 89.4C201.932 89.4 204.452 88.44 206.852 86.52C209.252 84.6 212.332 81.4 216.092 76.92C217.052 75.8 218.132 75.24 219.332 75.24ZM171.812 91.08C174.692 90.44 177.332 88.88 179.732 86.4C182.212 83.84 184.172 80.72 185.612 77.04C187.052 73.28 187.772 69.36 187.772 65.28C187.772 62.88 187.292 61.08 186.332 59.88C185.372 58.6 184.092 57.96 182.492 57.96C179.612 57.96 176.132 61 172.052 67.08C171.972 70.6 171.932 75.76 171.932 82.56C171.932 86.24 171.892 89.08 171.812 91.08ZM148.892 145.08C151.052 145.08 152.852 140.36 154.292 130.92C155.732 121.56 156.652 109.88 157.052 95.88C153.612 103.88 150.892 111.52 148.892 118.8C146.892 126.08 145.892 132.2 145.892 137.16C145.892 139.72 146.212 141.68 146.852 143.04C147.412 144.4 148.092 145.08 148.892 145.08ZM277.106 75.24C278.146 75.24 278.946 75.72 279.506 76.68C280.146 77.64 280.466 78.96 280.466 80.64C280.466 83.84 279.706 86.32 278.186 88.08C274.746 92.32 271.026 95.8 267.026 98.52C263.106 101.24 258.626 102.6 253.586 102.6C249.346 102.6 245.906 101.08 243.266 98.04C238.706 101 233.946 102.52 228.986 102.6C227.946 118.04 225.586 130.92 221.906 141.24C218.226 151.64 212.826 156.84 205.706 156.84C201.386 156.84 198.186 155.28 196.106 152.16C194.026 149.04 192.986 144.72 192.986 139.2C192.986 131.36 194.786 122.2 198.386 111.72C201.986 101.32 207.546 89.84 215.066 77.28C215.066 65.6 214.986 57.48 214.826 52.92C214.746 50.6 215.666 48.76 217.586 47.4C219.506 46.04 221.906 45.36 224.786 45.36C226.466 45.36 227.666 45.72 228.386 46.44C229.186 47.08 229.626 48.4 229.706 50.4C229.706 52.4 229.746 53.88 229.826 54.84C232.386 51.64 234.906 49.36 237.386 48C239.866 46.56 242.506 45.84 245.306 45.84C249.786 45.84 253.426 47.64 256.226 51.24C259.106 54.84 260.546 59.56 260.546 65.4C260.546 69.64 259.866 73.76 258.506 77.76C257.146 81.76 255.266 85.4 252.866 88.68C254.546 89.16 255.946 89.4 257.066 89.4C259.706 89.4 262.226 88.44 264.626 86.52C267.026 84.6 270.106 81.4 273.866 76.92C274.826 75.8 275.906 75.24 277.106 75.24ZM229.586 91.08C232.466 90.44 235.106 88.88 237.506 86.4C239.986 83.84 241.946 80.72 243.386 77.04C244.826 73.28 245.546 69.36 245.546 65.28C245.546 62.88 245.066 61.08 244.106 59.88C243.146 58.6 241.866 57.96 240.266 57.96C237.386 57.96 233.906 61 229.826 67.08C229.746 70.6 229.706 75.76 229.706 82.56C229.706 86.24 229.666 89.08 229.586 91.08ZM206.666 145.08C208.826 145.08 210.626 140.36 212.066 130.92C213.506 121.56 214.426 109.88 214.826 95.88C211.386 103.88 208.666 111.52 206.666 118.8C204.666 126.08 203.666 132.2 203.666 137.16C203.666 139.72 203.986 141.68 204.626 143.04C205.186 144.4 205.866 145.08 206.666 145.08ZM312.799 46.08C314.639 46.08 315.919 46.32 316.639 46.8C317.359 47.28 317.719 48.08 317.719 49.2C317.719 51.12 316.679 57.96 314.599 69.72C312.759 81 311.679 87.68 311.359 89.76C308.399 110.32 304.319 126.6 299.119 138.6C293.919 150.6 286.999 156.6 278.359 156.6C274.279 156.6 270.959 155.32 268.399 152.76C265.839 150.28 264.559 147 264.559 142.92C264.559 139.16 265.399 135.32 267.079 131.4C268.839 127.48 272.039 122.96 276.679 117.84C281.399 112.8 288.039 107 296.599 100.44L296.959 97.68C297.519 94.72 298.159 90.48 298.879 84.96C297.279 90.72 295.039 95.12 292.159 98.16C289.279 101.12 286.239 102.6 283.039 102.6C279.439 102.6 276.479 100.96 274.159 97.68C271.919 94.32 270.799 90.16 270.799 85.2C270.799 79.2 271.199 73.72 271.999 68.76C272.799 63.72 274.119 58.4 275.959 52.8C276.759 50.4 277.879 48.68 279.319 47.64C280.759 46.6 283.039 46.08 286.159 46.08C287.919 46.08 289.119 46.36 289.759 46.92C290.479 47.48 290.839 48.32 290.839 49.44C290.839 50.08 290.399 52.24 289.519 55.92C288.719 58.88 288.079 61.56 287.599 63.96C286.959 67.24 286.399 70.4 285.919 73.44C285.439 76.4 285.199 78.84 285.199 80.76C285.199 83.8 286.039 85.32 287.719 85.32C288.919 85.32 290.399 84.12 292.159 81.72C293.999 79.32 295.919 75.68 297.919 70.8C299.999 65.92 301.999 59.92 303.919 52.8C304.559 50.4 305.519 48.68 306.799 47.64C308.159 46.6 310.159 46.08 312.799 46.08ZM279.679 144.96C281.679 144.96 283.919 142.64 286.399 138C288.879 133.36 291.359 125.64 293.839 114.84C287.679 120.04 283.199 124.76 280.399 129C277.679 133.32 276.319 137.08 276.319 140.28C276.319 141.64 276.559 142.76 277.039 143.64C277.599 144.52 278.479 144.96 279.679 144.96Z" fill="white"/>
</svg>
