<svg width="250" height="250" viewBox="0 0 250 250" fill="none" xmlns="http://www.w3.org/2000/svg">
<path d="M200.073 145.161H49.9266L33.7976 177.419H48.387V250H201.613V177.419H216.202L200.073 145.161ZM195.088 153.226L203.152 169.355H139.589L131.525 153.226H195.088ZM54.9118 153.226H118.475L110.411 169.355H46.8473L54.9118 153.226ZM193.548 241.936H129.032V213.71H120.968V241.936H56.4515V177.419H115.396L120.968 166.274V201.613H129.032V166.274L134.604 177.419H193.548V241.936Z" fill="white"/>
<path d="M64.5161 209.677H88.7097V217.742H64.5161V209.677Z" fill="white"/>
<path d="M64.5161 225.806H88.7097V233.871H64.5161V225.806Z" fill="white"/>
<path d="M96.7742 225.806H104.839V233.871H96.7742V225.806Z" fill="white"/>
<path d="M106.378 65.5812L125 60.8343L143.622 65.5773L145.081 45.5814L154.972 28.6845L137.477 21.1122L125 5.68604L112.519 21.1122L95.0239 28.6845L104.916 45.5814L106.378 65.5812ZM117.544 27.7217L125 18.5074L132.456 27.7256L143.415 32.4726L137.178 43.1282L136.282 55.3903L125 52.5158L113.718 55.3864L112.823 43.1242L106.585 32.4667L117.544 27.7217Z" fill="white"/>
<path d="M44.274 73.8113L50.1334 63.8074L39.7535 59.3105L32.258 50.041L24.7625 59.3065L14.3826 63.8035L20.2419 73.8073L21.1082 85.7387L32.258 82.9035L43.4117 85.7426L44.274 73.8113ZM36.371 71.3502L36.0638 75.5478L32.258 74.5811L28.4561 75.5478L28.145 71.3502L25.9399 67.5798L29.7831 65.9161L32.258 62.8623L34.7289 65.92L38.5722 67.5857L36.371 71.3502Z" fill="white"/>
<path d="M229.758 73.8113L235.617 63.8074L225.237 59.3105L217.742 50.041L210.246 59.3065L199.866 63.8035L205.726 73.8073L206.592 85.7387L217.742 82.9035L228.896 85.7426L229.758 73.8113ZM221.855 71.3502L221.548 75.5478L217.742 74.5811L213.94 75.5478L213.633 71.3502L211.428 67.5798L215.271 65.9161L217.742 62.8623L220.213 65.92L224.056 67.5857L221.855 71.3502Z" fill="white"/>
<path d="M50.1807 96.097C57.8593 101.218 64.6815 107.467 70.4444 114.677L86.4159 134.634L83.1121 108.213C81.3874 94.4195 74.0198 81.7222 62.8996 73.384L59.0367 70.4878L47.2175 94.1202L50.1807 96.097ZM61.803 82.9921C68.6212 89.4441 73.2461 98.0324 74.831 107.323C69.7375 101.342 63.9589 96.0123 57.5896 91.4189L61.803 82.9921Z" fill="white"/>
<path d="M166.888 108.213L163.584 134.634L179.555 114.673C185.322 107.463 192.141 101.214 199.819 96.0931L202.778 94.1163L190.959 70.4839L187.096 73.388C175.98 81.7262 168.609 94.4195 166.888 108.213ZM192.41 91.4189C186.041 96.0123 180.258 101.338 175.169 107.324C176.758 98.0324 181.379 89.4442 188.197 82.9922L192.41 91.4189Z" fill="white"/>
<path d="M141.129 137.097H149.193V120.202C149.193 100.834 156.02 81.9799 168.423 67.0972L162.225 61.9348C148.62 78.2627 141.129 98.9556 141.129 120.202V137.097Z" fill="white"/>
<path d="M169.355 48.3872H177.419V56.4517H169.355V48.3872Z" fill="white"/>
<path d="M181.452 32.2581H189.516V40.3226H181.452V32.2581Z" fill="white"/>
<path d="M100.806 137.097H108.871V120.202C108.871 98.9516 101.379 78.2627 87.7783 61.9348L81.5803 67.0972C93.9803 81.9799 100.806 100.834 100.806 120.202V137.097Z" fill="white"/>
<path d="M72.5806 48.3872H80.6451V56.4517H72.5806V48.3872Z" fill="white"/>
<path d="M60.4839 32.2581H68.5484V40.3226H60.4839V32.2581Z" fill="white"/>
<path d="M120.968 68.5483H129.032V76.6129H120.968V68.5483Z" fill="white"/>
<path d="M120.968 84.6775H129.032V137.097H120.968V84.6775Z" fill="white"/>
<path d="M233.871 108.871H241.936V116.936H233.871V108.871Z" fill="white"/>
<path d="M233.871 125H241.936V133.065H233.871V125Z" fill="white"/>
<path d="M241.936 116.936H250V125H241.936V116.936Z" fill="white"/>
<path d="M225.806 116.936H233.871V125H225.806V116.936Z" fill="white"/>
<path d="M221.774 0H229.839V8.06452H221.774V0Z" fill="white"/>
<path d="M221.774 16.1292H229.839V24.1937H221.774V16.1292Z" fill="white"/>
<path d="M229.839 8.06445H237.903V16.129H229.839V8.06445Z" fill="white"/>
<path d="M213.71 8.06445H221.774V16.129H213.71V8.06445Z" fill="white"/>
<path d="M8.06445 125H16.129V133.065H8.06445V125Z" fill="white"/>
<path d="M8.06445 141.129H16.129V149.193H8.06445V141.129Z" fill="white"/>
<path d="M16.1292 133.064H24.1937V141.129H16.1292V133.064Z" fill="white"/>
<path d="M0 133.064H8.06452V141.129H0V133.064Z" fill="white"/>
<path d="M8.06445 0H16.129V8.06452H8.06445V0Z" fill="white"/>
<path d="M8.06445 16.1292H16.129V24.1937H8.06445V16.1292Z" fill="white"/>
<path d="M16.1292 8.06445H24.1937V16.129H16.1292V8.06445Z" fill="white"/>
<path d="M0 8.06445H8.06452V16.129H0V8.06445Z" fill="white"/>
</svg>
