<svg width="250" height="250" viewBox="0 0 250 250" fill="none" xmlns="http://www.w3.org/2000/svg">
<g clip-path="url(#clip0)">
<path d="M189.167 27.7086L126.667 0.350295C125.604 -0.11351 124.396 -0.11351 123.333 0.350295L60.8334 27.7086C59.3156 28.371 58.3342 29.8693 58.3334 31.5253V96.942C58.356 111.643 65.4205 125.444 77.3334 134.059L120.529 165.213C123.197 167.144 126.803 167.144 129.471 165.213L172.667 134.063C184.58 125.448 191.644 111.647 191.667 96.9461V31.5253C191.666 29.8693 190.684 28.371 189.167 27.7086ZM183.333 96.9461C183.314 108.971 177.536 120.258 167.792 127.304L125 158.167L82.2084 127.304C72.4644 120.258 66.6858 108.971 66.6667 96.9461V34.2503L125 8.71696L183.333 34.2503V96.9461Z" fill="white"/>
<path d="M123.333 18.5417L77.5 38.6084C75.9823 39.2708 75.0009 40.7691 75 42.425V96.9459C75.0129 106.294 79.5062 115.07 87.0833 120.546L122.563 146.138C124.018 147.187 125.982 147.187 127.438 146.138L162.917 120.546C170.494 115.07 174.987 106.294 175 96.9459V42.425C174.999 40.7691 174.018 39.2708 172.5 38.6084L126.667 18.5417C125.604 18.0779 124.396 18.0779 123.333 18.5417ZM166.667 45.1459V96.9459C166.654 103.617 163.447 109.878 158.042 113.788L125 137.621L91.9583 113.788C86.5527 109.878 83.3461 103.617 83.3333 96.9459V45.1459L125 26.9084L166.667 45.1459Z" fill="white"/>
<path d="M34.5208 138.334L25.5083 117.276C23.5917 112.934 19.5046 109.945 14.7864 109.434C10.0683 108.923 5.43591 110.968 2.63433 114.798C-0.167248 118.629 -0.712428 123.663 1.20415 128.005L17.5333 163.926C19.7363 168.788 22.8009 173.212 26.5792 176.984L52.2583 202.667C50.8121 204.2 50.0045 206.227 50 208.334V241.667C50 246.27 53.7309 250.001 58.3333 250.001H104.167C108.769 250.001 112.5 246.27 112.5 241.667V208.334C112.5 203.732 108.769 200.001 104.167 200.001V192.246C104.294 182.378 101.075 172.758 95.0333 164.955C91.4912 160.296 86.6639 156.775 81.1458 154.826C72.3702 151.138 64.2995 145.959 57.2917 139.517C50.7868 134.16 41.5459 133.68 34.5208 138.334ZM104.167 241.667H58.3333V208.334H104.167V241.667ZM88.5292 170.159C93.3859 176.487 95.96 184.271 95.8333 192.246V200.001H61.3792L32.4708 171.092C29.4005 168.026 26.9092 164.431 25.1167 160.48L8.78749 124.559C8.09062 123.026 8.22032 121.244 9.13181 119.828C10.0433 118.411 11.6117 117.555 13.2958 117.555C15.2777 117.553 17.0688 118.736 17.8458 120.559L27.1667 142.296C29.6417 148.096 33.2093 153.365 37.675 157.817L56.7083 176.855C57.7545 177.938 59.3036 178.372 60.7604 177.991C62.2172 177.61 63.3549 176.472 63.7362 175.015C64.1175 173.558 63.6831 172.009 62.6 170.963L43.5667 151.926C41.6528 150.016 39.9319 147.923 38.4292 145.676C42.4306 142.596 48.0285 142.69 51.925 145.901C59.7139 153.049 68.7162 158.749 78.5083 162.734C82.498 164.185 85.9796 166.764 88.5292 170.159Z" fill="white"/>
<path d="M91.6666 220.833H87.4999C85.1987 220.833 83.3333 222.699 83.3333 225C83.3333 227.301 85.1987 229.167 87.4999 229.167H91.6666C93.9678 229.167 95.8332 227.301 95.8332 225C95.8332 222.699 93.9678 220.833 91.6666 220.833Z" fill="white"/>
<path d="M232.467 163.925L248.796 128.004C250.804 123.648 250.307 118.548 247.496 114.661C244.686 110.774 239.998 108.704 235.232 109.246C230.466 109.788 226.362 112.857 224.496 117.275L215.504 138.254C208.455 133.623 199.209 134.13 192.708 139.504C185.701 145.946 177.63 151.126 168.854 154.813C163.336 156.762 158.509 160.283 154.967 164.942C148.922 172.749 145.703 182.374 145.833 192.246V200C141.231 200 137.5 203.731 137.5 208.333V241.667C137.5 246.269 141.231 250 145.833 250H191.667C196.269 250 200 246.269 200 241.667V208.333C199.995 206.226 199.188 204.2 197.742 202.667L223.421 176.983C227.199 173.212 230.264 168.788 232.467 163.925ZM191.667 241.667H145.833V208.333H191.667V241.667ZM188.621 200H154.167V192.246C154.041 184.272 156.615 176.489 161.471 170.163C164.015 166.77 167.489 164.19 171.471 162.733C181.265 158.75 190.269 153.049 198.058 145.9C201.951 142.665 207.564 142.556 211.579 145.638C210.072 147.901 208.343 150.009 206.417 151.929L187.383 170.967C185.804 172.602 185.827 175.2 187.434 176.808C189.041 178.415 191.64 178.438 193.275 176.858L212.308 157.821C216.774 153.369 220.342 148.1 222.817 142.3L232.138 120.558C232.917 118.738 234.707 117.557 236.688 117.558C238.372 117.559 239.94 118.415 240.852 119.831C241.763 121.247 241.893 123.03 241.196 124.563L224.867 160.483C223.074 164.435 220.583 168.03 217.513 171.096L188.621 200Z" fill="white"/>
<path d="M162.5 220.833H158.333C156.032 220.833 154.167 222.699 154.167 225C154.167 227.301 156.032 229.167 158.333 229.167H162.5C164.801 229.167 166.667 227.301 166.667 225C166.667 222.699 164.801 220.833 162.5 220.833Z" fill="white"/>
<path d="M102.5 88.3336C100.659 86.9529 98.0473 87.326 96.6666 89.167C95.2859 91.0079 95.659 93.6196 97.4999 95.0003L114.167 107.5C114.888 108.041 115.765 108.334 116.667 108.334C116.902 108.333 117.138 108.313 117.371 108.275C118.499 108.082 119.498 107.432 120.133 106.479L153.467 56.4795C154.293 55.2409 154.395 53.6557 153.736 52.321C153.076 50.9862 151.755 50.1047 150.269 50.0085C148.784 49.9123 147.359 50.6159 146.533 51.8545L115.642 98.192L102.5 88.3336Z" fill="white"/>
</g>
<defs>
<clipPath id="clip0">
<rect width="250" height="250" fill="white"/>
</clipPath>
</defs>
</svg>
