<svg width="60" height="60" viewBox="0 0 60 60" fill="none" xmlns="http://www.w3.org/2000/svg">
<path d="M55 14.5003C53.1208 15.3155 51.1336 15.8544 49.1 16.1003C51.2454 14.8186 52.8532 12.8022 53.625 10.4253C51.6089 11.6254 49.4019 12.471 47.1 12.9253C45.5614 11.2567 43.5124 10.146 41.2745 9.76741C39.0366 9.3888 36.7364 9.76368 34.7345 10.8333C32.7326 11.9028 31.1423 13.6066 30.2131 15.6774C29.2839 17.7481 29.0682 20.0688 29.6 22.2753C25.5236 22.0691 21.5361 21.0077 17.8966 19.1599C14.2572 17.3122 11.0471 14.7195 8.475 11.5503C7.57284 13.1257 7.0988 14.9098 7.1 16.7253C7.0968 18.4112 7.51054 20.0718 8.30439 21.5592C9.09823 23.0466 10.2475 24.3146 11.65 25.2503C10.0199 25.2059 8.42471 24.7685 7 23.9753V24.1003C7.01222 26.4625 7.83999 28.748 9.34329 30.5702C10.8466 32.3924 12.9331 33.6394 15.25 34.1003C14.3581 34.3717 13.4322 34.5148 12.5 34.5253C11.8547 34.5177 11.2111 34.4592 10.575 34.3503C11.2348 36.3823 12.5116 38.1581 14.2277 39.4307C15.9438 40.7032 18.0139 41.4092 20.15 41.4503C16.543 44.2884 12.0897 45.8374 7.5 45.8503C6.66434 45.853 5.82934 45.8029 5 45.7003C9.68607 48.7259 15.147 50.3321 20.725 50.3253C24.5742 50.3652 28.3928 49.6378 31.9578 48.1855C35.5227 46.7331 38.7626 44.585 41.488 41.8665C44.2135 39.148 46.3699 35.9138 47.8314 32.3525C49.2929 28.7913 50.0301 24.9746 50 21.1253C50 20.7003 50 20.2503 50 19.8003C51.9617 18.3373 53.6537 16.5438 55 14.5003Z" fill="white"/>
</svg>
