<svg width="42" height="42" viewBox="0 0 42 42" fill="none" xmlns="http://www.w3.org/2000/svg">
<path d="M20.9999 2.89655C16.2003 2.90194 11.5987 4.811 8.20482 8.20488C4.81094 11.5988 2.90188 16.2003 2.89648 21C2.90464 25.7988 4.81459 30.3988 8.20788 33.7921C11.6012 37.1853 16.2011 39.0953 20.9999 39.1034C25.8013 39.1034 30.406 37.1961 33.801 33.8011C37.1961 30.406 39.1034 25.8013 39.1034 21C39.1034 16.1987 37.1961 11.594 33.801 8.19892C30.406 4.80387 25.8013 2.89655 20.9999 2.89655ZM32.0113 31.4462C30.9945 29.3956 29.4249 27.6699 27.4795 26.4639C25.5342 25.2578 23.2905 24.6194 21.0016 24.6207C18.7128 24.6219 16.4698 25.2628 14.5257 26.4709C12.5817 27.679 11.0139 29.4064 9.99935 31.4581C7.29213 28.6507 5.78359 24.9 5.79304 21C5.79304 16.9669 7.39519 13.0989 10.247 10.2471C13.0989 7.39525 16.9668 5.7931 20.9999 5.7931C25.0331 5.7931 28.901 7.39525 31.7528 10.2471C34.6047 13.0989 36.2068 16.9669 36.2068 21C36.2159 24.8944 34.7115 28.6399 32.0113 31.4462ZM20.9999 10.1379C19.7109 10.1379 18.4509 10.5202 17.3791 11.2363C16.3074 11.9524 15.4721 12.9703 14.9788 14.1611C14.4855 15.352 14.3564 16.6624 14.6079 17.9266C14.8594 19.1908 15.4801 20.3521 16.3915 21.2636C17.303 22.175 18.4643 22.7957 19.7285 23.0472C20.9927 23.2987 22.3031 23.1696 23.494 22.6763C24.6848 22.183 25.7027 21.3477 26.4188 20.276C27.1349 19.2042 27.5172 17.9442 27.5172 16.6552C27.5172 15.7993 27.3486 14.9518 27.0211 14.1611C26.6936 13.3704 26.2135 12.652 25.6083 12.0468C25.0031 11.4416 24.2847 10.9615 23.494 10.634C22.7033 10.3065 21.8558 10.1379 20.9999 10.1379Z" fill="white"/>
</svg>
