<svg width="40" height="40" viewBox="0 0 40 40" fill="none" xmlns="http://www.w3.org/2000/svg">
<path d="M18.8282 4.6875C14.3156 4.94659 10.0855 6.69861 6.71118 9.70642L11.7151 14.7101C12.8162 14.3192 14.0009 14.1055 15.2344 14.1055C16.4957 14.1055 17.7061 14.3286 18.8282 14.7366V4.6875Z" fill="#D0C7B8"/>
<path d="M23.3774 17.9568L32.843 9.32068C29.5453 6.54877 25.488 4.9353 21.1719 4.6875V15.9406C21.9989 16.5057 22.7417 17.1854 23.3774 17.9568Z" fill="#D0C7B8"/>
<path d="M0 24.6526V25.8245H4.6875V24.6526C4.6875 20.9512 6.60431 17.6895 9.49707 15.8068L5.05402 11.3638C1.78711 15.0286 0 19.703 0 24.6526Z" fill="#D0C7B8"/>
<path d="M33.7854 25.8246H40V24.6527C40 22.9486 39.7873 21.2775 39.3765 19.6686L33.7854 25.8246Z" fill="#D0C7B8"/>
<path d="M19.9998 25.864C18.7477 25.864 17.5703 26.3517 16.685 27.237C14.8576 29.0647 14.8576 32.0383 16.685 33.866C17.5703 34.7513 18.7477 35.239 19.9998 35.239C21.2516 35.239 22.429 34.7513 23.3143 33.866C25.142 32.0383 25.142 29.0647 23.3143 27.237C22.429 26.3517 21.2516 25.864 19.9998 25.864Z" fill="#D0C7B8"/>
<path d="M35.0148 10.5121L20.7173 23.5565C22.324 23.7183 23.8142 24.4223 24.9714 25.5795C26.1567 26.7648 26.8284 28.2718 26.989 29.8221L40.0001 15.4959V10.5121H35.0148Z" fill="#D0C7B8"/>
</svg>
