<svg width="60" height="60" viewBox="0 0 60 60" fill="none" xmlns="http://www.w3.org/2000/svg">
<path d="M57.5001 24.2757C57.6237 20.6973 56.8411 17.1457 55.2251 13.9507C54.1286 12.6397 52.6069 11.755 50.9251 11.4507C43.9689 10.8195 36.9839 10.5608 30.0001 10.6757C23.0417 10.5556 16.0818 10.8059 9.15007 11.4257C7.77962 11.675 6.51136 12.3178 5.50007 13.2757C3.25007 15.3507 3.00007 18.9007 2.75007 21.9007C2.38735 27.2946 2.38735 32.7068 2.75007 38.1007C2.82239 39.7892 3.0738 41.4653 3.50007 43.1007C3.8015 44.3634 4.41137 45.5316 5.27507 46.5007C6.29324 47.5093 7.59103 48.1887 9.00007 48.4507C14.3899 49.116 19.8206 49.3917 25.2501 49.2757C34.0001 49.4007 41.6751 49.2757 50.7501 48.5757C52.1937 48.3298 53.528 47.6496 54.5751 46.6257C55.275 45.9255 55.7978 45.0684 56.1001 44.1257C56.9941 41.3822 57.4333 38.511 57.4001 35.6257C57.5001 34.2257 57.5001 25.7757 57.5001 24.2757ZM24.3501 37.1257V21.6507L39.1501 29.4257C35.0001 31.7257 29.5251 34.3257 24.3501 37.1257Z" fill="white"/>
</svg>
